<svg xmlns="http://www.w3.org/2000/svg" viewBox="0 0 800 500">
  <!-- Background -->
  <rect width="800" height="500" fill="#f8f9fa" />
  
  <!-- Title -->
  <text x="400" y="40" font-family="Arial" font-size="24" text-anchor="middle" font-weight="bold">Receipt Text Extraction Architecture</text>
  
  <!-- Frontend -->
  <rect x="40" y="100" width="120" height="60" rx="5" fill="#61dafb" stroke="#333" stroke-width="2" />
  <text x="100" y="135" font-family="Arial" font-size="16" text-anchor="middle" fill="#333">Frontend</text>
  
  <!-- Supabase -->
  <rect x="40" y="300" width="120" height="60" rx="5" fill="#3ECF8E" stroke="#333" stroke-width="2" />
  <text x="100" y="335" font-family="Arial" font-size="16" text-anchor="middle" fill="#333">Supabase</text>
  
  <!-- AWS Cloud -->
  <rect x="220" y="80" width="540" height="340" rx="10" fill="#FFFFFF" stroke="#FF9900" stroke-width="2" stroke-dasharray="5,5" />
  <text x="490" y="110" font-family="Arial" font-size="20" text-anchor="middle" fill="#232F3E">AWS Cloud</text>
  
  <!-- S3 Bucket -->
  <rect x="260" y="140" width="120" height="60" rx="5" fill="#E05243" stroke="#333" stroke-width="2" />
  <text x="320" y="175" font-family="Arial" font-size="16" text-anchor="middle" fill="#FFF">S3 Bucket</text>
  
  <!-- SNS -->
  <rect x="260" y="300" width="120" height="60" rx="5" fill="#FF9900" stroke="#333" stroke-width="2" />
  <text x="320" y="335" font-family="Arial" font-size="16" text-anchor="middle" fill="#333">SNS Topic</text>
  
  <!-- EC2 Instance -->
  <rect x="460" y="220" width="260" height="180" rx="5" fill="#FFFFFF" stroke="#333" stroke-width="2" />
  <text x="590" y="245" font-family="Arial" font-size="16" text-anchor="middle" fill="#333">EC2 Instance</text>
  
  <!-- Docker container -->
  <rect x="480" y="260" width="220" height="120" rx="5" fill="#0DB7ED" stroke="#333" stroke-width="2" />
  <text x="590" y="280" font-family="Arial" font-size="14" text-anchor="middle" fill="#FFF">Docker Container</text>
  
  <!-- Text Extraction Service -->
  <rect x="500" y="300" width="180" height="60" rx="5" fill="#17202A" stroke="#333" stroke-width="2" />
  <text x="590" y="335" font-family="Arial" font-size="14" text-anchor="middle" fill="#FFF">Text Extraction Model</text>
  
  <!-- Arrows -->
  <!-- Frontend to S3 -->
  <line x1="160" y1="130" x2="260" y2="170" stroke="#333" stroke-width="2" marker-end="url(#arrowhead)" />
  <text x="210" y="140" font-family="Arial" font-size="12" text-anchor="middle" fill="#333">1. Upload Image</text>
  
  <!-- S3 to SNS -->
  <line x1="320" y1="200" x2="320" y2="300" stroke="#333" stroke-width="2" marker-end="url(#arrowhead)" />
  <text x="350" y="250" font-family="Arial" font-size="12" text-anchor="middle" fill="#333">2. Event Notification</text>
  
  <!-- SNS to EC2 -->
  <line x1="380" y1="330" x2="460" y2="330" stroke="#333" stroke-width="2" marker-end="url(#arrowhead)" />
  <text x="420" y="315" font-family="Arial" font-size="12" text-anchor="middle" fill="#333">3. Trigger</text>
  
  <!-- EC2 to S3 (get image) -->
  <path d="M590,260 C590,200 420,200 320,200" fill="none" stroke="#333" stroke-width="2" marker-end="url(#arrowhead)" />
  <text x="450" y="190" font-family="Arial" font-size="12" text-anchor="middle" fill="#333">4. Get Image</text>
  
  <!-- EC2 to Supabase -->
  <path d="M480,350 C250,400 200,350 160,330" fill="none" stroke="#333" stroke-width="2" marker-end="url(#arrowhead)" />
  <text x="300" y="390" font-family="Arial" font-size="12" text-anchor="middle" fill="#333">5. Update Results</text>
  
  <!-- Supabase to Frontend -->
  <line x1="100" y1="300" x2="100" y2="160" stroke="#333" stroke-width="2" marker-end="url(#arrowhead)" />
  <text x="70" y="230" font-family="Arial" font-size="12" text-anchor="start" fill="#333">6. Display Results</text>
  
  <!-- Arrow marker definition -->
  <defs>
    <marker id="arrowhead" markerWidth="10" markerHeight="7" refX="9" refY="3.5" orient="auto">
      <polygon points="0 0, 10 3.5, 0 7" fill="#333" />
    </marker>
  </defs>
</svg>
